<?xml version="1.0" encoding="UTF-8"?><svg id="a" xmlns="http://www.w3.org/2000/svg" viewBox="0 0 680.92 680.93"><defs><style>.b{fill:none;stroke:#1d1d1b;stroke-linecap:round;stroke-linejoin:round;}.c{fill:#1d1d1b;}</style></defs><g><path class="c" d="M247.97,243.72c-55.06,52.67-55.05,140.81,0,193.49,51.52,49.3,133.47,49.3,184.99,0,55.05-52.67,55.05-140.81,0-193.49-51.51-49.29-133.47-49.3-184.99,0Zm240.95,241.12c-81.23,83.48-215.7,83.49-296.92,0-76.56-78.69-76.56-210.06,0-288.74,81.23-83.49,215.7-83.49,296.93,0,76.56,78.7,76.56,210.06,0,288.75Z"/><path class="c" d="M37.52,343.25c0,9.53,7.23,17.49,16.71,18.42l48.84,4.75c8.22,.8,14.92,6.95,16.42,15.06h0c5.76,31.2,17.77,60.21,35.7,86.24,2.34,3.4,3.42,7.38,3.24,11.29-.17,3.92-1.57,7.78-4.19,10.97l-31.16,37.87c-6.06,7.36-5.53,18.11,1.21,24.85l3.94,3.94c6.74,6.74,17.48,7.26,24.84,1.2l37.88-31.16c6.38-5.25,15.45-5.63,22.25-.96,13.02,8.97,26.78,16.46,41.18,22.42,14.41,5.97,29.45,10.41,45.05,13.29h.01c8.11,1.5,14.25,8.2,15.05,16.41l4.75,48.84c.92,9.48,8.9,16.72,18.43,16.72h5.58c9.53,0,17.49-7.24,18.42-16.72l4.75-48.84c.8-8.22,6.95-14.91,15.06-16.41,15.6-2.88,30.64-7.32,45.05-13.29,14.41-5.97,28.18-13.45,41.19-22.41,3.4-2.35,7.37-3.41,11.29-3.24s7.79,1.58,10.97,4.19l37.87,31.16c7.35,6.05,18.11,5.53,24.85-1.21l3.94-3.94c6.74-6.74,7.25-17.49,1.2-24.84l-31.16-37.88c-5.25-6.38-5.64-15.46-.96-22.25,8.97-13.02,16.45-26.79,22.41-41.19,5.97-14.41,10.41-29.45,13.29-45.05h0c1.49-8.13,8.19-14.27,16.4-15.06l48.84-4.75c9.48-.92,16.72-8.9,16.72-18.43v-5.57c0-9.53-7.24-17.5-16.72-18.43l-48.84-4.75c-8.22-.8-14.91-6.94-16.4-15.06h0c-5.76-31.2-17.77-60.21-35.69-86.24h0c-4.68-6.8-4.29-15.88,.96-22.26l31.16-37.88c6.05-7.35,5.54-18.11-1.2-24.84l-3.94-3.94c-6.74-6.74-17.49-7.26-24.85-1.21l-37.87,31.16c-6.38,5.24-15.46,5.64-22.26,.95-13.02-8.97-26.78-16.45-41.19-22.41-14.4-5.96-29.46-10.4-45.05-13.29-3.79-.7-7.14-2.53-9.73-5.12-2.96-2.96-4.91-6.91-5.33-11.29l-4.75-48.84c-.92-9.48-8.89-16.71-18.42-16.71h-5.58c-9.53,0-17.5,7.23-18.43,16.71l-4.75,48.84c-.8,8.22-6.94,14.91-15.05,16.41h-.01c-31.19,5.76-60.2,17.77-86.24,35.7-3.4,2.33-7.37,3.41-11.29,3.24s-7.79-1.58-10.97-4.2l-37.88-31.16c-7.36-6.06-18.11-5.54-24.84,1.2l-3.94,3.94c-6.74,6.74-7.26,17.49-1.21,24.85l31.16,37.87c5.24,6.38,5.63,15.45,.95,22.26-8.97,13.01-16.45,26.77-22.42,41.18s-10.4,29.46-13.29,45.05h0c-1.5,8.12-8.2,14.27-16.42,15.06l-48.84,4.75c-9.48,.92-16.71,8.89-16.71,18.42v5.58Zm51.62,70.58c-2.1-7.22-8.46-12.4-15.95-13.13l-55.98-5.44c-9.49-.93-16.72-8.9-16.72-18.43v-72.76c0-9.53,7.24-17.5,16.72-18.43l55.98-5.44c7.49-.73,13.85-5.9,15.95-13.13,5.3-18.29,12.56-35.82,21.72-52.47,3.63-6.6,2.78-14.74-1.99-20.55l-35.73-43.42c-6.05-7.35-5.53-18.11,1.21-24.85l51.45-51.45c6.74-6.74,17.49-7.25,24.84-1.2l43.42,35.73c5.81,4.77,13.96,5.61,20.55,1.99,16.65-9.17,34.19-16.43,52.48-21.72,7.22-2.1,12.4-8.45,13.13-15.95l5.44-55.98c.92-9.48,8.9-16.72,18.42-16.71h72.76c9.53,0,17.49,7.22,18.42,16.72l5.44,55.98c.72,7.49,5.9,13.85,13.13,15.95,18.29,5.3,35.82,12.56,52.48,21.71,6.59,3.63,14.74,2.78,20.55-1.99l43.41-35.72c7.36-6.06,18.11-5.53,24.85,1.21l51.45,51.45c6.74,6.74,7.26,17.48,1.2,24.84l-35.72,43.41c-4.78,5.81-5.61,13.96-1.99,20.55,9.16,16.66,16.42,34.2,21.72,52.48,2.1,7.22,8.45,12.4,15.95,13.13l55.98,5.44c9.49,.92,16.72,8.89,16.72,18.41v72.77c0,9.52-7.23,17.49-16.72,18.41l-55.98,5.44c-7.49,.73-13.85,5.9-15.95,13.13-5.3,18.29-12.56,35.82-21.72,52.48-3.63,6.58-2.78,14.74,1.99,20.55l35.72,43.41c6.06,7.36,5.54,18.11-1.2,24.84l-51.45,51.45c-6.74,6.74-17.49,7.26-24.85,1.21l-43.41-35.72c-5.81-4.78-13.96-5.63-20.55-1.99-16.65,9.15-34.19,16.41-52.48,21.71-7.22,2.1-12.4,8.46-13.13,15.95l-5.44,55.98c-.92,9.49-8.89,16.72-18.42,16.72h-72.76c-9.52,0-17.49-7.24-18.42-16.72l-5.44-55.98c-.73-7.49-5.9-13.85-13.13-15.95-18.29-5.3-35.82-12.56-52.48-21.72-6.59-3.62-14.74-2.78-20.55,1.99l-43.42,35.73c-7.35,6.05-18.11,5.54-24.84-1.2l-51.45-51.45c-6.74-6.74-7.26-17.49-1.21-24.85l35.73-43.42c4.78-5.81,5.62-13.95,1.99-20.55-9.15-16.65-16.41-34.19-21.72-52.47Z"/><path class="c" d="M192,484.84c81.22,83.49,215.69,83.48,296.92,0,76.56-78.69,76.56-210.06,0-288.75-81.23-83.48-215.7-83.49-296.93,0-76.56,78.68-76.56,210.06,0,288.74ZM54.23,361.67c-9.48-.92-16.71-8.89-16.71-18.42v-5.58c0-9.53,7.23-17.49,16.71-18.42l48.84-4.75c8.22-.8,14.92-6.95,16.42-15.06h0c2.88-15.6,7.32-30.65,13.29-45.06s13.45-28.18,22.42-41.18c4.68-6.81,4.29-15.88-.95-22.26l-31.16-37.87c-6.06-7.36-5.53-18.11,1.21-24.85l3.94-3.94c6.74-6.74,17.48-7.26,24.84-1.2l37.88,31.16c3.18,2.63,7.05,4.04,10.97,4.2s7.88-.91,11.29-3.24c26.04-17.94,55.05-29.95,86.24-35.7h.01c8.11-1.5,14.25-8.2,15.05-16.41l4.75-48.84c.92-9.48,8.9-16.72,18.43-16.72h5.58c9.53,0,17.49,7.24,18.42,16.72l4.75,48.84c.42,4.38,2.38,8.33,5.33,11.29,2.59,2.59,5.95,4.42,9.73,5.12,15.59,2.88,30.65,7.33,45.05,13.29,14.41,5.97,28.17,13.45,41.19,22.41,6.8,4.69,15.88,4.29,22.26-.95l37.87-31.16c7.35-6.05,18.11-5.53,24.85,1.21l3.94,3.94c6.74,6.74,7.25,17.49,1.2,24.84l-31.16,37.88c-5.25,6.38-5.64,15.46-.96,22.25h0c17.92,26.04,29.93,55.05,35.69,86.24h0c1.49,8.13,8.19,14.27,16.4,15.06l48.84,4.75c9.48,.92,16.72,8.9,16.72,18.43v5.57c0,9.53-7.24,17.5-16.72,18.43l-48.84,4.75c-8.22,.8-14.91,6.94-16.4,15.06h0c-2.88,15.61-7.32,30.65-13.29,45.06-5.96,14.4-13.45,28.17-22.41,41.19-4.68,6.79-4.29,15.88,.96,22.25l31.16,37.88c6.05,7.35,5.54,18.11-1.2,24.84l-3.94,3.94c-6.74,6.74-17.49,7.26-24.85,1.21l-37.87-31.16c-3.19-2.62-7.06-4.03-10.97-4.19s-7.88,.9-11.29,3.24c-13.02,8.96-26.78,16.45-41.19,22.41-14.41,5.97-29.45,10.41-45.05,13.29-8.11,1.5-14.27,8.2-15.06,16.41l-4.75,48.84c-.92,9.48-8.89,16.71-18.42,16.71h-5.58c-9.53,0-17.5-7.23-18.43-16.71l-4.75-48.84c-.8-8.22-6.94-14.91-15.05-16.41h-.01c-15.6-2.88-30.64-7.32-45.05-13.29-14.4-5.96-28.16-13.45-41.18-22.42-6.8-4.67-15.88-4.29-22.25,.96l-37.88,31.16c-7.36,6.06-18.11,5.54-24.84-1.2l-3.94-3.94c-6.74-6.74-7.26-17.49-1.21-24.85l31.16-37.87c2.63-3.19,4.03-7.06,4.19-10.97,.17-3.91-.9-7.89-3.24-11.29-17.93-26.03-29.95-55.05-35.7-86.24h0c-1.5-8.12-8.2-14.27-16.42-15.06l-48.84-4.75Z"/></g><g><path class="b" d="M555.12,74.35l51.46,51.46c6.73,6.73,7.25,17.48,1.2,24.84l-35.72,43.41c-4.77,5.81-5.61,13.97-1.99,20.55,9.16,16.67,16.43,34.2,21.72,52.49,2.1,7.22,8.46,12.4,15.95,13.12l55.97,5.44c9.49,.92,16.72,8.89,16.72,18.41v72.78c.01,9.52-7.23,17.49-16.72,18.41l-55.97,5.44c-7.5,.72-13.85,5.9-15.95,13.12-5.29,18.29-12.56,35.82-21.71,52.48-3.63,6.58-2.79,14.74,1.99,20.56l35.72,43.41c6.06,7.36,5.54,18.11-1.2,24.84l-51.45,51.45c-6.74,6.74-17.49,7.27-24.85,1.21l-43.41-35.72c-5.81-4.78-13.96-5.63-20.55-1.99-16.66,9.15-34.19,16.41-52.48,21.71-7.22,2.1-12.41,8.46-13.12,15.95l-5.44,55.97c-.92,9.49-8.89,16.72-18.42,16.72h-72.77c-9.52,0-17.49-7.23-18.42-16.72l-5.44-55.98c-.73-7.49-5.91-13.85-13.13-15.95-18.28-5.3-35.82-12.56-52.48-21.72-6.58-3.61-14.74-2.79-20.55,1.99l-43.42,35.72c-7.35,6.05-18.11,5.54-24.84-1.2l-51.46-51.46c-6.73-6.73-7.25-17.49-1.2-24.85l35.72-43.42c4.78-5.81,5.61-13.96,1.99-20.55-9.15-16.66-16.41-34.2-21.72-52.47-2.1-7.22-8.46-12.41-15.95-13.13l-55.98-5.44c-9.49-.93-16.72-8.9-16.72-18.43v-72.76c0-9.53,7.23-17.5,16.72-18.43l55.97-5.44c7.5-.72,13.85-5.9,15.95-13.12,5.3-18.29,12.56-35.82,21.72-52.47,3.63-6.6,2.79-14.74-1.99-20.55l-35.72-43.42c-6.05-7.35-5.53-18.12,1.21-24.85l51.45-51.45c6.73-6.73,17.49-7.25,24.84-1.2l43.42,35.72c5.82,4.77,13.97,5.61,20.56,1.99,16.65-9.16,34.19-16.43,52.47-21.72,7.22-2.1,12.4-8.46,13.12-15.95l5.44-55.97c.93-9.48,8.9-16.72,18.42-16.71h72.77c9.53,0,17.49,7.22,18.42,16.72l5.44,55.97c.71,7.49,5.9,13.85,13.12,15.95,18.29,5.29,35.82,12.56,52.48,21.71,6.58,3.63,14.74,2.78,20.55-1.99l43.41-35.72c7.36-6.06,18.12-5.53,24.85,1.2Z"/><path class="b" d="M247.97,243.72c-55.06,52.67-55.05,140.81,0,193.49,51.52,49.3,133.47,49.3,184.99,0,55.05-52.67,55.05-140.81,0-193.49-51.51-49.29-133.47-49.3-184.99,0Z"/></g></svg>